<?xml version="1.0" standalone="no"?>
<!DOCTYPE svg PUBLIC "-//W3C//DTD SVG 20010904//EN"
 "http://www.w3.org/TR/2001/REC-SVG-20010904/DTD/svg10.dtd">
<svg version="1.0" xmlns="http://www.w3.org/2000/svg"
 width="700.000000pt" height="700.000000pt" viewBox="0 0 700.000000 700.000000"
 preserveAspectRatio="xMidYMid meet">
<metadata>
Created by potrace 1.11, written by Peter Selinger 2001-2013
</metadata>
<g transform="translate(0.000000,700.000000) scale(0.100000,-0.100000)"
fill="#000000" stroke="none">
<path d="M2102 5650 c-40 -25 -74 -94 -66 -136 6 -35 -47 75 818 -1679 l183
-370 -62 -120 c-34 -66 -127 -247 -206 -403 -79 -155 -182 -358 -230 -450 -47
-92 -161 -315 -254 -497 -92 -181 -185 -363 -206 -403 -50 -96 -54 -128 -26
-183 28 -55 75 -82 134 -76 84 9 62 -26 387 612 87 171 205 400 261 510 56
110 158 309 226 442 68 134 127 243 130 243 6 0 18 -24 282 -560 674 -1370
603 -1245 704 -1245 93 0 76 -24 328 470 92 182 202 398 245 480 42 83 144
281 225 440 206 403 240 468 249 483 5 9 61 -95 165 -305 87 -175 234 -472
327 -661 379 -770 429 -866 454 -885 39 -27 95 -33 138 -13 56 26 77 61 76
126 0 51 -16 88 -233 525 -129 259 -306 619 -396 800 -89 182 -208 422 -264
535 l-102 206 72 139 c39 77 122 239 184 360 62 121 165 324 230 450 65 127
173 338 240 470 270 528 275 537 275 572 0 102 -111 174 -198 129 -43 -22 -53
-38 -179 -286 -66 -129 -178 -347 -248 -485 -70 -137 -167 -326 -215 -420 -48
-93 -139 -270 -201 -393 l-114 -223 -174 353 c-95 194 -249 506 -341 693 -328
667 -351 710 -380 737 -36 33 -68 42 -116 34 -72 -14 -65 -4 -354 -571 -230
-453 -332 -649 -343 -662 -5 -7 -6 -13 -2 -13 4 0 3 -6 -3 -12 -9 -12 -121
-229 -262 -508 l-64 -125 -172 350 c-95 193 -301 609 -457 925 -225 457 -290
580 -313 595 -43 28 -112 31 -152 5z m2178 -493 c13 -28 132 -270 263 -537
473 -959 527 -1070 527 -1081 0 -14 -31 -74 -415 -824 -199 -387 -401 -783
-434 -852 -20 -40 -38 -73 -41 -73 -3 0 -76 143 -162 317 -86 175 -272 551
-412 837 l-256 518 151 297 c84 163 189 368 234 456 45 88 147 286 225 440
245 481 284 555 290 555 3 0 16 -24 30 -53z"/>
<path d="M690 4021 c-96 -52 -95 -193 1 -243 34 -17 71 -18 687 -18 359 0 652
-4 653 -8 1 -4 2 -162 3 -352 1 -375 2 -385 58 -429 22 -18 43 -25 79 -25 52
-1 86 18 123 67 19 26 20 42 20 475 0 441 0 448 -21 482 -43 69 10 65 -818 67
-717 2 -752 2 -785 -16z"/>
</g>
</svg>
